<?xml version="1.0" encoding="utf-8"?>
<!-- Generator: Adobe Illustrator 16.0.0, SVG Export Plug-In . SVG Version: 6.00 Build 0)  -->
<!DOCTYPE svg PUBLIC "-//W3C//DTD SVG 1.1//EN" "http://www.w3.org/Graphics/SVG/1.1/DTD/svg11.dtd">
<svg version="1.1" xmlns="http://www.w3.org/2000/svg" xmlns:xlink="http://www.w3.org/1999/xlink" x="0px" y="0px" width="500px"
	 height="500px" viewBox="0 0 500 500" enable-background="new 0 0 500 500" xml:space="preserve">
<g id="Layer_1">
	
		<rect x="71.517" y="71.483" fill="none" stroke="#000000" stroke-width="3" stroke-miterlimit="10" width="362.069" height="288.792"/>
	
		<rect x="214.621" y="360.275" fill="#FFFFFF" stroke="#000000" stroke-width="3" stroke-miterlimit="10" width="74.138" height="43.966"/>
	
		<rect x="143.069" y="404.241" fill="#FFFFFF" stroke="#000000" stroke-width="3" stroke-miterlimit="10" width="219.828" height="54.311"/>
	
		<rect x="109" y="107.667" fill="none" stroke="#000000" stroke-width="3" stroke-miterlimit="10" width="288.667" height="207.333"/>
	<path fill="none" stroke="#000000" stroke-width="3" stroke-miterlimit="10" d="M259,337.5c0,6.352-5.148,11.5-11.5,11.5l0,0
		c-6.351,0-11.5-5.148-11.5-11.5l0,0c0-6.352,5.149-11.5,11.5-11.5l0,0C253.852,326,259,331.148,259,337.5L259,337.5z"/>
	
		<rect x="143.069" y="215.879" fill="#97D1AA" stroke="#000000" stroke-width="3" stroke-miterlimit="10" width="219.828" height="72.121"/>
	<rect x="288.759" y="135" fill="#647C64" stroke="#000000" stroke-width="3" stroke-miterlimit="10" width="74.138" height="66"/>
	<line fill="none" stroke="#000000" stroke-width="3" stroke-miterlimit="10" x1="259" y1="142" x2="143.069" y2="142"/>
	<line fill="none" stroke="#000000" stroke-width="3" stroke-miterlimit="10" x1="259" y1="201" x2="143.069" y2="201"/>
	<line fill="none" stroke="#000000" stroke-width="3" stroke-miterlimit="10" x1="143.069" y1="162" x2="259" y2="162"/>
	<line fill="none" stroke="#000000" stroke-width="3" stroke-miterlimit="10" x1="259" y1="182.5" x2="143.069" y2="182.5"/>
</g>
<g id="Layer_2">
</g>
</svg>
